<svg width="229" height="230" viewBox="0 0 229 230" fill="none" xmlns="http://www.w3.org/2000/svg">
<path d="M143.125 225.417C139.213 225.417 135.969 222.172 135.969 218.26V41.7396C135.969 37.8275 139.213 34.5833 143.125 34.5833C147.037 34.5833 150.281 37.8275 150.281 41.7396V218.26C150.281 222.172 147.037 225.417 143.125 225.417Z" fill="black"/>
<path d="M171.75 206.333H143.125V53.6667H171.75C192.837 53.6667 209.917 70.7463 209.917 91.8333V168.167C209.917 189.254 192.837 206.333 171.75 206.333Z" fill="black"/>
<path d="M57.2497 53.6667C36.1626 53.6667 19.083 70.7463 19.083 91.8333V168.167C19.083 189.254 36.1626 206.333 57.2497 206.333H104.958C110.206 206.333 114.5 202.04 114.5 196.792V63.2083C114.5 57.9604 110.206 53.6667 104.958 53.6667H57.2497ZM73.9476 163.396C73.9476 167.308 70.7034 170.552 66.7913 170.552C62.8793 170.552 59.6351 167.308 59.6351 163.396V96.6042C59.6351 92.6921 62.8793 89.4479 66.7913 89.4479C70.7034 89.4479 73.9476 92.6921 73.9476 96.6042V163.396Z" fill="black"/>
</svg>
