<svg width="117" height="160" viewBox="0 0 117 160" fill="none" xmlns="http://www.w3.org/2000/svg">
<path d="M78.3073 131.171L80.782 129.319C95.1446 118.573 105.126 102.985 108.879 85.4443C112.631 67.9032 109.9 49.5966 101.191 33.9146C86.3977 7.8494 52.8449 -2.63551 28.1495 14.2979C19.6209 20.1335 13.1348 28.4943 9.60233 38.2058C6.06988 47.9173 5.66864 58.4914 8.45493 68.4427C11.2412 78.394 17.0751 87.2223 25.1369 93.6875C33.1987 100.153 43.0834 103.93 53.4023 104.488C54.0587 104.509 54.6907 104.742 55.2031 105.153C55.7155 105.564 56.0804 106.13 56.2429 106.766C56.4054 107.402 56.3566 108.074 56.104 108.681C55.8514 109.287 55.4085 109.795 54.8422 110.127L53.011 111.497C42.6428 119.242 31.0991 125.273 18.82 129.359L28.6833 152.86C46.6884 149.595 63.6815 142.168 78.3073 131.171Z" stroke="white" stroke-width="11.8064" stroke-miterlimit="10"/>
</svg>
